# Blender 4.2.0
# www.blender.org
mtllib creeper.mtl
o Creeper
v -0.099301 -0.173776 0.049650
v 0.099301 -0.173776 0.049650
v -0.099301 -0.173776 -0.049650
v 0.099301 -0.173776 -0.049650
v -0.099301 0.124126 0.049650
v 0.099301 0.124126 0.049650
v -0.099301 0.124126 -0.049650
v 0.099301 0.124126 -0.049650
v -0.099301 0.124126 0.099301
v 0.099301 0.124126 0.099301
v -0.099301 0.124126 -0.099301
v 0.099301 0.124126 -0.099301
v -0.099301 0.322728 0.099301
v 0.099301 0.322728 0.099301
v -0.099301 0.322728 -0.099301
v 0.099301 0.322728 -0.099301
v -0.099301 -0.322728 0.148951
v -0.000000 -0.322728 0.148951
v -0.099301 -0.322728 0.049650
v -0.000000 -0.322728 0.049650
v -0.099301 -0.173776 0.148951
v -0.000000 -0.173776 0.148951
v -0.099301 -0.173776 0.049650
v -0.000000 -0.173776 0.049650
v 0.000000 -0.322728 0.148951
v 0.099301 -0.322728 0.148951
v 0.000000 -0.322728 0.049650
v 0.099301 -0.322728 0.049650
v 0.000000 -0.173776 0.148951
v 0.099301 -0.173776 0.148951
v 0.000000 -0.173776 0.049650
v 0.099301 -0.173776 0.049650
v -0.099301 -0.322728 -0.049650
v -0.000000 -0.322728 -0.049650
v -0.099301 -0.322728 -0.148951
v -0.000000 -0.322728 -0.148951
v -0.099301 -0.173776 -0.049650
v -0.000000 -0.173776 -0.049650
v -0.099301 -0.173776 -0.148951
v -0.000000 -0.173776 -0.148951
v 0.000000 -0.322728 -0.049650
v 0.099301 -0.322728 -0.049650
v 0.000000 -0.322728 -0.148951
v 0.099301 -0.322728 -0.148951
v 0.000000 -0.173776 -0.049650
v 0.099301 -0.173776 -0.049650
v 0.000000 -0.173776 -0.148951
v 0.099301 -0.173776 -0.148951
vn -0.0000 -1.0000 -0.0000
vn -0.0000 1.0000 -0.0000
vn -0.0000 -0.0000 1.0000
vn 1.0000 -0.0000 -0.0000
vn -0.0000 -0.0000 -1.0000
vn -1.0000 -0.0000 -0.0000
vt 0.436230 0.498592
vt 0.560438 0.373325
vt 0.436230 0.373325
vt 0.312230 0.498592
vt 0.312230 0.373325
vt 0.436230 -0.002477
vt 0.312230 -0.002477
vt 0.498230 -0.002477
vt 0.622229 -0.002477
vt 0.498230 0.373325
vt 0.250230 0.373325
vt 0.250230 -0.002477
vt 0.250230 0.999660
vt 0.374230 0.749126
vt 0.250230 0.749126
vt 0.126230 0.999660
vt 0.126230 0.749126
vt 0.250230 0.498592
vt 0.126230 0.498591
vt 0.374230 0.498592
vt 0.498230 0.498592
vt 0.002231 0.749126
vt 0.002231 0.498592
vt 0.188230 0.373324
vt 0.126230 0.373324
vt 0.064231 0.498592
vt 0.064231 0.373324
vt 0.126230 0.185556
vt 0.064231 0.185556
vt 0.188230 0.185556
vt 0.250230 0.185556
vt 0.002231 0.373325
vt 0.002231 0.185556
vt 0.560230 0.498592
vt 0.622229 0.373325
vt 0.374230 0.999660
vt 0.498230 0.749126
vt 0.188230 0.498592
s 1
g Creeper_02_-_Default
usemtl 02_-_Default
f 3/1/1 2/2/1 1/3/1
f 6/3/2 7/4/2 5/5/2
f 2/6/3 5/5/3 1/7/3
f 4/8/4 6/3/4 2/6/4
f 3/9/5 8/10/5 4/8/5
f 1/7/6 7/11/6 3/12/6
f 11/13/1 10/14/1 9/15/1
f 14/15/2 15/16/2 13/17/2
f 10/18/3 13/17/3 9/19/3
f 12/20/4 14/15/4 10/18/4
f 11/21/5 16/14/5 12/20/5
f 9/19/6 15/22/6 11/23/6
f 19/19/1 18/24/1 17/25/1
f 22/25/2 23/26/2 21/27/2
f 18/28/3 21/27/3 17/29/3
f 20/30/4 22/25/4 18/28/4
f 19/31/5 24/24/5 20/30/5
f 17/29/6 23/32/6 19/33/6
f 27/19/1 26/24/1 25/25/1
f 30/25/2 31/26/2 29/27/2
f 26/28/3 29/27/3 25/29/3
f 28/30/4 30/25/4 26/28/4
f 27/31/5 32/24/5 28/30/5
f 25/29/6 31/32/6 27/33/6
f 35/19/1 34/24/1 33/25/1
f 38/25/2 39/26/2 37/27/2
f 34/28/3 37/27/3 33/29/3
f 36/30/4 38/25/4 34/28/4
f 35/31/5 40/24/5 36/30/5
f 33/29/6 39/32/6 35/33/6
f 43/19/1 42/24/1 41/25/1
f 46/25/2 47/26/2 45/27/2
f 42/28/3 45/27/3 41/29/3
f 44/30/4 46/25/4 42/28/4
f 43/31/5 48/24/5 44/30/5
f 41/29/6 47/32/6 43/33/6
f 3/1/1 4/34/1 2/2/1
f 6/3/2 8/1/2 7/4/2
f 2/6/3 6/3/3 5/5/3
f 4/8/4 8/10/4 6/3/4
f 3/9/5 7/35/5 8/10/5
f 1/7/6 5/5/6 7/11/6
f 11/13/1 12/36/1 10/14/1
f 14/15/2 16/13/2 15/16/2
f 10/18/3 14/15/3 13/17/3
f 12/20/4 16/14/4 14/15/4
f 11/21/5 15/37/5 16/14/5
f 9/19/6 13/17/6 15/22/6
f 19/19/1 20/38/1 18/24/1
f 22/25/2 24/19/2 23/26/2
f 18/28/3 22/25/3 21/27/3
f 20/30/4 24/24/4 22/25/4
f 19/31/5 23/11/5 24/24/5
f 17/29/6 21/27/6 23/32/6
f 27/19/1 28/38/1 26/24/1
f 30/25/2 32/19/2 31/26/2
f 26/28/3 30/25/3 29/27/3
f 28/30/4 32/24/4 30/25/4
f 27/31/5 31/11/5 32/24/5
f 25/29/6 29/27/6 31/32/6
f 35/19/1 36/38/1 34/24/1
f 38/25/2 40/19/2 39/26/2
f 34/28/3 38/25/3 37/27/3
f 36/30/4 40/24/4 38/25/4
f 35/31/5 39/11/5 40/24/5
f 33/29/6 37/27/6 39/32/6
f 43/19/1 44/38/1 42/24/1
f 46/25/2 48/19/2 47/26/2
f 42/28/3 46/25/3 45/27/3
f 44/30/4 48/24/4 46/25/4
f 43/31/5 47/11/5 48/24/5
f 41/29/6 45/27/6 47/32/6
